# xmcd
#
# Track frame offsets:
#	150
#	15283
#	35732
#	53890
#	69072
#	84388
#	86890
#	107971
#	126302
#	143661
#	159296
#
# Disc length: 2516 seconds
#
# Revision: 1
# Processed by: cddbd v1.5.2PL0 Copyright (c) Steve Scherf et al.
# Submitted via: audiograbber 1.83.01
#
DISCID=8709d20b
DTITLE=Frank Foster - Rhythm and Whiskey
DYEAR=2014
DGENRE=Country
TTITLE0=Flyin' Down the Highway
TTITLE1=Southern Man
TTITLE2=Cut Off Jeans
TTITLE3=Outlaw Angel
TTITLE4=Bayou Moon
TTITLE5=Lone Chief Intro
TTITLE6=The Gospel
TTITLE7=Hard Livin'
TTITLE8=Good Ol' Girl
TTITLE9=I Cried
TTITLE10=Livin' the Dream
EXTD=
EXTT0=
EXTT1=
EXTT2=
EXTT3=
EXTT4=
EXTT5=
EXTT6=
EXTT7=
EXTT8=
EXTT9=
EXTT10=
PLAYORDER=
